<?xml version="1.0" encoding="utf-8"?>
<svg viewBox="0 0 275 300" xmlns="http://www.w3.org/2000/svg" xmlns:bx="https://boxy-svg.com">
  <rect x="0.18" y="-0.037" width="275.339" height="298.028" style="stroke-linecap: round; stroke-linejoin: round; fill: rgb(86, 128, 156);" rx="74.948" ry="74.948" bx:origin="0.5 1.38875"/>
  <path style="filter: none; fill-rule: evenodd; fill: rgb(255, 255, 255); paint-order: stroke; stroke-linejoin: bevel; stroke-dashoffset: -3px; stroke-opacity: 0.44; stroke-width: 22.6312px; stroke: rgb(88, 255, 11);" transform="matrix(0.527066, 0, 0, 0.533418, -3.412173, 39.99292)" d="M 501.636 230.753 A 232.677 232.677 0 1 1 438.165 38.153 L 364.894 109.092 A 130.692 130.692 0 1 0 400.545 217.274 Z" bx:shape="pie 271 200 130.692 232.677 97.595 45.926 1@676bff46"/>
  <path stroke="rgb(255,0,0)" stroke-width="0" d="M 203.994 40.491 C 205.055 40.314 206.477 40.235 207.698 40.491 C 209.003 40.762 210.637 41.375 211.567 42.171 C 212.459 42.935 212.95 43.935 213.252 45.114 C 213.617 46.517 213.359 47.59 213.252 50.16 C 213.057 54.897 212.433 64.147 213.203 72.559 C 214.043 81.742 215.446 96.472 215.273 104.536 C 215.16 109.804 215.815 113.546 215.273 116.585 C 214.883 118.776 214.204 120.255 213.252 121.632 C 212.408 122.855 211.21 123.838 210.057 124.575 C 209.006 125.243 208.034 125.72 206.687 125.976 C 205.092 126.273 203.861 125.897 200.965 125.976 C 196.071 126.11 180.354 119.427 174.866 119.808 C 168.627 120.241 177.847 146.359 179.202 156.28 C 180.254 163.982 183.298 171.626 183.287 175.165 C 183.279 176.863 183.471 177.161 182.949 178.247 C 182.297 179.605 180.9 181.715 179.077 182.59 C 177.113 183.535 174.919 184.301 171.332 183.432 C 164.713 181.83 146.849 165.405 141.195 166.895 C 136.561 168.12 137.269 178.283 136.145 184.694 C 134.919 191.691 134.423 204.032 132.912 208.21 C 132.109 210.42 132.756 210.405 131.263 211.18 C 129.705 211.988 126.994 212.354 125.201 212.021 C 123.477 211.7 121.561 210.249 120.655 209.359 C 119.99 208.707 119.485 208.464 119.644 207.396 C 119.997 205.025 119.07 201.02 119.644 197.305 C 120.949 188.861 123.167 175.607 124.022 169.278 C 124.799 163.525 128.854 159.061 131.601 156.525 C 133.512 154.757 135.619 154.172 137.658 153.723 C 139.549 153.307 141.337 153.353 143.384 153.723 C 145.776 154.153 148.022 155.004 151.129 156.525 C 155.559 158.693 166.074 166.614 167.627 166.618 C 168.178 166.618 167.879 166.364 167.797 165.355 C 167.466 161.269 161.12 133.069 160.053 124.153 C 159.433 118.986 159.114 116.093 159.715 113.502 C 160.143 111.666 160.766 110.512 162.072 109.438 C 163.513 108.254 166.005 107.35 168.301 106.916 C 170.745 106.455 172.76 106.43 176.384 106.916 C 182.067 107.679 197.36 113.96 200.289 112.801 C 201.935 112.151 200.617 110.477 200.458 107.896 C 200.15 102.878 200.342 92.854 199.742 84.833 C 199.194 77.538 198.456 68.024 198.716 61.602 C 198.957 55.655 197.078 48.163 198.437 44.834 C 199.233 42.89 200.58 42.043 201.638 41.33 C 202.426 40.796 203.078 40.639 203.994 40.491 Z" style="stroke: rgb(129, 151, 57); stroke-width: 2px; fill: rgb(190, 209, 171);" transform="matrix(0.882947, 0.469472, -0.469472, 0.882947, 78.86702, -63.846806)"/>
</svg>